<svg width="97" height="24" viewBox="0 0 97 24" fill="none" xmlns="http://www.w3.org/2000/svg">
<path d="M19.6422 12.8876C18.8435 12.8338 18.0409 12.7786 17.2408 12.7772C15.7248 12.7733 14.2062 12.7996 12.6902 12.8311C11.8692 12.8495 11.0494 12.8916 10.231 12.9533C9.23915 13.0296 8.24995 13.1281 7.26074 13.2346C4.86589 13.4908 2.50388 13.9245 0.174707 14.5382C0.166825 14.5408 0.158944 14.5434 0.151062 14.5461C0.189159 14.7301 0.233824 14.914 0.279803 15.0967C0.899863 15.1243 1.51861 15.1532 2.13999 15.1769C2.71013 15.1992 3.27895 15.215 3.84909 15.2399C4.66883 15.2754 5.48726 15.3175 6.307 15.3503C6.89554 15.374 7.48538 15.3871 8.07391 15.4108C8.99087 15.4476 9.90782 15.487 10.8235 15.5238C11.3542 15.5461 11.8849 15.5632 12.4157 15.5855C13.3326 15.6223 14.2482 15.6618 15.1639 15.6973C15.734 15.7196 16.3029 15.7367 16.873 15.7577C17.8675 15.7945 18.8606 15.8339 19.8551 15.8707C20.2019 15.8839 20.5487 15.8944 20.8981 15.9036C21.6522 15.9233 22.4049 15.943 23.1577 15.9548C23.1905 15.9561 23.2194 15.9561 23.2431 15.9548C23.54 15.0927 23.7383 14.186 23.829 13.2464C23.5321 13.2109 23.2352 13.1728 22.9357 13.1465C21.8374 13.0572 20.7405 12.9625 19.6422 12.8876Z" fill="#2764FF"/>
<path d="M23.3968 8.69977C23.3587 8.6932 23.3127 8.69188 23.2575 8.68794C21.9097 8.59858 20.5618 8.50133 19.2127 8.43168C18.0553 8.37386 16.8953 8.33444 15.7367 8.31867C14.7041 8.30422 13.6689 8.3305 12.635 8.34364C12.2961 8.34758 11.9585 8.35547 11.6222 8.37518C10.6579 8.42774 9.6937 8.4698 8.73077 8.54733C7.42234 8.65509 6.11521 8.77336 4.81072 8.92186C3.80312 9.03751 2.8021 9.20177 1.80107 9.35946C1.24406 9.44751 0.692313 9.56052 0.139251 9.67223C0.0840757 9.94688 0.0367833 10.2268 0 10.5093C1.54096 10.558 23.2746 11.2216 23.8553 11.2347C23.7935 10.3595 23.6385 9.51059 23.3968 8.69977Z" fill="#2764FF"/>
<path d="M20.7812 4.05283C20.5368 4.03837 20.2951 4.00946 20.0508 4.00158C18.8632 3.96741 17.6756 3.92798 16.4881 3.91616C15.5514 3.90564 14.6134 3.92404 13.6781 3.94244C12.8281 3.96215 11.9782 3.97398 11.1308 4.03574C9.89991 4.12642 8.6703 4.24732 7.44069 4.37479C5.75786 4.54957 2.61289 5.20401 1.98363 5.33673C1.82862 5.56145 1.6828 5.79142 1.54486 6.02665C4.20114 6.12258 21.0071 6.69555 22.6256 6.74548C22.1369 5.76383 21.5129 4.85839 20.7812 4.05283Z" fill="#2764FF"/>
<path d="M20.8285 17.8999C19.5424 17.7738 18.2537 17.6003 16.9637 17.5622C15.0339 17.507 13.0975 17.5031 11.169 17.641C9.97486 17.7265 8.78466 17.85 7.59577 17.9801C5.77762 18.1785 3.98707 18.5241 2.21622 18.9762C2.17812 18.9854 2.14265 18.9959 2.10455 19.0064C2.22279 19.172 2.34364 19.335 2.47107 19.494C2.73512 19.4992 2.99917 19.5111 3.26322 19.5202C3.79395 19.54 4.32468 19.5584 4.8541 19.582C5.65414 19.6175 6.45549 19.6595 7.25552 19.6924C7.85325 19.7161 8.45098 19.7292 9.05002 19.7529C10.1207 19.7975 11.19 19.8501 12.2607 19.8935C13.129 19.9289 13.9987 19.95 14.867 19.9841C16.0047 20.0288 17.1423 20.0827 18.2813 20.1234C19.0905 20.1537 19.8998 20.1655 20.7077 20.1931C21.2923 19.5636 21.8072 18.8724 22.2421 18.1286C22.1974 18.1154 22.1567 18.1036 22.1146 18.0971C21.6877 18.0274 21.2607 17.942 20.8285 17.8999Z" fill="#2764FF"/>
<path d="M18.5755 2.03034C18.3601 1.88447 18.1394 1.74648 17.9134 1.61638C16.1439 0.58873 14.0853 0 11.8902 0C9.69368 0 7.63513 0.58873 5.86691 1.61638C5.63044 1.75305 5.39923 1.89892 5.17328 2.05005H18.5781V2.03034H18.5755Z" fill="#2764FF"/>
<path d="M6.10738 22.448C7.79415 23.3757 9.72921 23.9093 11.7878 23.9264H11.994C14.0526 23.9093 15.9876 23.3757 17.6744 22.448C17.9844 22.2784 18.2866 22.0945 18.5782 21.8973V21.875H5.17072C5.47286 22.0813 5.78552 22.2719 6.10738 22.448Z" fill="#2764FF"/>
<path d="M36.6466 6.10791C34.5513 6.10791 32.8027 7.31823 32.0815 9.22635V6.30503H29.2637V19.3005H32.0815V13.1806C32.226 11.8861 32.7357 10.8204 33.5962 10.0096C34.4554 9.20269 35.5063 8.79268 36.7202 8.79268C37.0236 8.79268 37.2456 8.81896 37.4046 8.8413L37.4847 8.85313V6.16442L37.4243 6.15522C37.1891 6.12368 36.9343 6.10791 36.6466 6.10791Z" fill="#1C2127"/>
<path d="M47.7185 6.50754C46.9579 6.20923 46.1841 6.05811 45.4183 6.05811C44.6537 6.05811 43.8668 6.20923 43.0825 6.50754C41.2723 7.18826 39.9914 8.32367 39.2755 9.88092C38.4544 11.6432 38.4544 14.0112 39.2755 15.7748C39.994 17.3176 41.2749 18.4438 43.0825 19.1245C43.8681 19.4097 44.6537 19.5556 45.4183 19.5556C46.1828 19.5556 46.9566 19.411 47.7172 19.1245C49.5327 18.4635 50.8215 17.3373 51.5492 15.7748C52.3703 14.0125 52.3703 11.6432 51.5492 9.88223C50.8136 8.28293 49.5603 7.17906 47.7185 6.50754ZM48.1888 15.9167C47.3967 16.6592 46.4626 17.0351 45.4117 17.0351C44.3529 17.0351 43.4359 16.6697 42.6096 15.9167C41.8017 15.1598 41.3918 14.1203 41.3918 12.8285C41.3918 11.5012 41.7899 10.4828 42.6083 9.71533C43.4543 8.94525 44.3713 8.57204 45.4117 8.57204C46.4456 8.57204 47.3796 8.95708 48.1901 9.71533C49.0257 10.4749 49.4316 11.4934 49.4316 12.8285C49.4316 14.1466 49.0256 15.1558 48.1888 15.9167Z" fill="#1C2127"/>
<path d="M59.9475 6.05813C58.417 6.05813 56.8774 6.64292 55.6136 7.70605C54.2789 8.82832 53.4815 10.7338 53.4815 12.8036C53.4815 14.872 54.2789 16.7775 55.6136 17.9011C56.8774 18.9642 58.417 19.549 59.9475 19.549C62.1072 19.549 63.6981 18.3387 64.2787 17.2007H64.3142V24H67.132V6.02002L64.2564 8.3618C63.6547 7.23559 62.0783 6.05813 59.9475 6.05813ZM60.2943 17.0351C59.2184 17.0351 58.2581 16.6592 57.4423 15.9167C56.6239 15.1493 56.2258 14.1308 56.2258 12.8036C56.2258 11.4763 56.6239 10.4578 57.4423 9.69039C58.2581 8.94791 59.2184 8.57206 60.2943 8.57206C61.3952 8.57206 62.3542 8.94791 63.1463 9.69039C63.9818 10.45 64.3877 11.4684 64.3877 12.8036C64.3877 14.1387 63.9818 15.1559 63.1463 15.9167C62.3542 16.6579 61.3952 17.0351 60.2943 17.0351Z" fill="#1C2127"/>
<path d="M75.5241 6.05813C73.9936 6.05813 72.454 6.64292 71.1902 7.70605C69.8555 8.82832 69.0581 10.7338 69.0581 12.8036C69.0581 14.872 69.8555 16.7775 71.1902 17.9011C72.454 18.9642 73.9936 19.549 75.5241 19.549C77.6838 19.549 79.2747 18.3387 79.8553 17.2007H79.8908V24H82.7086V6.02002L79.833 8.3618C79.2326 7.23559 77.6549 6.05813 75.5241 6.05813ZM75.8709 17.0351C74.795 17.0351 73.8347 16.6592 73.0189 15.9167C72.2004 15.1493 71.8024 14.1308 71.8024 12.8036C71.8024 11.4763 72.2004 10.4578 73.0189 9.69039C73.8347 8.94791 74.795 8.57206 75.8709 8.57206C76.9718 8.57206 77.9308 8.94791 78.7242 9.69039C79.5597 10.45 79.9657 11.4684 79.9657 12.8036C79.9657 14.1387 79.5597 15.1572 78.7242 15.9167C77.9308 16.6579 76.9718 17.0351 75.8709 17.0351Z" fill="#1C2127"/>
<path d="M94.1821 6.30503V14.0558C94.1099 14.7036 93.7499 15.3804 93.1102 16.0677C92.4993 16.7248 91.6993 17.0586 90.7324 17.0586C88.8512 17.0586 87.7293 15.7904 87.7293 13.6681V6.30503H84.9114V13.8166C84.9114 15.6814 85.3936 17.1203 86.3447 18.0928C87.2879 19.0587 88.4558 19.5475 89.8154 19.5475C92.5085 19.5475 93.9049 17.5711 94.278 16.6854L97 19.0482V6.30371H94.1821V6.30503Z" fill="#1C2127"/>
</svg>
