<svg width="127" height="32" viewBox="0 0 127 32" fill="none" xmlns="http://www.w3.org/2000/svg">
<path d="M19.134 13.9028C19.1022 10.6001 22.0468 8.99376 22.1816 8.91893C20.5138 6.66106 17.9286 6.35301 17.0208 6.32806C14.8492 6.11574 12.7434 7.53474 11.6374 7.53474C10.5095 7.53474 8.80689 6.34837 6.97073 6.38376C4.60933 6.4174 2.39922 7.68673 1.18771 9.65859C-1.31338 13.6789 0.552066 19.5869 2.94824 22.8363C4.14632 24.4287 5.54693 26.2045 7.38066 26.1424C9.17413 26.0746 9.84393 25.0814 12.0083 25.0814C14.1531 25.0814 14.7821 26.1424 16.6518 26.1024C18.5764 26.0746 19.7885 24.5036 20.9451 22.8978C22.3299 21.0744 22.8868 19.2772 22.9088 19.1849C22.8649 19.1704 19.1718 17.8605 19.134 13.9028ZM15.6019 4.19028C16.567 3.07063 17.227 1.54663 17.0434 0C15.6471 0.0580131 13.9018 0.896882 12.8953 1.99217C12.0065 2.95751 11.2116 4.5401 11.4166 6.02814C12.9849 6.13662 14.5954 5.29311 15.6019 4.19028ZM43.3397 0.507614H45.8017C46.5972 0.507614 47.2926 0.661349 47.8874 0.968238C48.4682 1.26178 48.945 1.71181 49.2581 2.26193C49.5772 2.81711 49.737 3.45294 49.737 4.16824C49.737 4.88412 49.5772 5.51994 49.2581 6.07513C48.945 6.62525 48.4682 7.07528 47.8874 7.36882C47.2926 7.67571 46.5972 7.82886 45.8011 7.82886H43.3391L43.3397 0.507614ZM45.7798 6.73474C46.6399 6.73474 47.3121 6.50849 47.7959 6.05482C48.2796 5.60174 48.5218 4.97288 48.5218 4.16824C48.5218 3.37114 48.2796 2.74402 47.7959 2.28687C47.3121 1.83031 46.6399 1.60232 45.7798 1.60232H44.5432V6.73474H45.7798ZM53.3276 7.99246C52.7761 7.99246 52.2814 7.87179 51.844 7.62988C51.413 7.39385 51.0595 7.0486 50.8228 6.63263C50.5788 6.2103 50.4568 5.73923 50.4568 5.22175C50.4568 4.7037 50.5788 4.23321 50.8228 3.8103C51.0596 3.39455 51.4131 3.0495 51.844 2.81363C52.2814 2.57172 52.7761 2.45047 53.3276 2.45047C53.8796 2.45047 54.3744 2.57346 54.8118 2.81886C55.2422 3.05763 55.5954 3.40418 55.8329 3.82074C56.0769 4.24366 56.199 4.71008 56.199 5.22175C56.199 5.73981 56.0769 6.2103 55.8329 6.63263C55.5963 7.0486 55.2427 7.39385 54.8118 7.62988C54.3744 7.87179 53.8796 7.99246 53.3276 7.99246ZM53.3276 6.95983C53.6289 6.95983 53.9083 6.89021 54.1664 6.7504C54.4244 6.61059 54.6306 6.40928 54.7849 6.14706C54.9386 5.88427 55.0161 5.57621 55.0161 5.22175C55.0161 4.86729 54.9386 4.56041 54.7843 4.30109C54.6399 4.05173 54.4261 3.84499 54.1664 3.70355C53.9112 3.56437 53.6218 3.49192 53.3276 3.49355C53.0268 3.49355 52.7474 3.56316 52.4894 3.70297C52.2314 3.84279 52.0252 4.04235 51.8708 4.30109C51.7171 4.56041 51.6396 4.86729 51.6396 5.22175C51.6396 5.57563 51.7171 5.88427 51.8714 6.14706C52.0252 6.40928 52.2314 6.61059 52.4894 6.7504C52.7474 6.88963 53.0262 6.95983 53.3276 6.95983ZM56.5644 2.61465H57.8436L58.9514 6.34663H58.9941L60.2306 2.61407H61.4458L62.6713 6.34663H62.714L63.8218 2.61407H65.0797L63.3271 7.82944H62.0802L60.8217 4.08644H60.7894L59.5425 7.82886H58.3163L56.5644 2.61465ZM65.8428 2.61465H66.972V3.2992H67.0256C67.1836 3.05381 67.4185 2.85134 67.7302 2.69065C68.0351 2.5322 68.3771 2.44958 68.7245 2.45047C69.3913 2.45047 69.8982 2.63611 70.2459 3.0074C70.5937 3.37926 70.7675 3.88571 70.7675 4.52618V7.82886H69.5847V4.67991C69.5847 4.27092 69.4791 3.97099 69.2675 3.78013C69.0558 3.58869 68.7642 3.49355 68.3915 3.49355C68.1261 3.49355 67.8894 3.56316 67.6814 3.70297C67.474 3.84279 67.3123 4.02843 67.1977 4.2599C67.083 4.49195 67.0256 4.74141 67.0256 5.00711V7.82886H65.8428V2.61465ZM72.1004 0.507614H73.2839V7.82886H72.1004V0.507614ZM77.1862 7.99246C76.6341 7.99246 76.14 7.87179 75.7026 7.62988C75.2714 7.39394 74.9176 7.04867 74.6808 6.63263C74.4374 6.2103 74.3154 5.73923 74.3154 5.22175C74.3154 4.7037 74.4374 4.23321 74.6814 3.8103C74.9182 3.39455 75.2717 3.0495 75.7026 2.81363C76.14 2.57172 76.6341 2.45047 77.1862 2.45047C77.7382 2.45047 78.233 2.57346 78.6704 2.81886C79.1008 3.05763 79.454 3.40418 79.6915 3.82074C79.9355 4.24366 80.0575 4.71008 80.0575 5.22175C80.0575 5.73981 79.9355 6.2103 79.6915 6.63263C79.4549 7.0486 79.1013 7.39385 78.6704 7.62988C78.233 7.87179 77.7382 7.99246 77.1862 7.99246ZM77.1862 6.95983C77.4875 6.95983 77.7669 6.89021 78.025 6.7504C78.283 6.61059 78.4886 6.40928 78.6429 6.14706C78.7972 5.88427 78.8747 5.57621 78.8747 5.22175C78.8747 4.86729 78.7972 4.56041 78.6429 4.30109C78.4985 4.05173 78.2847 3.84499 78.025 3.70355C77.7698 3.56437 77.4804 3.49192 77.1862 3.49355C76.8854 3.49355 76.6054 3.56316 76.3474 3.70297C76.0893 3.84279 75.8838 4.04235 75.7294 4.30109C75.5751 4.56041 75.4982 4.86729 75.4982 5.22175C75.4982 5.57563 75.5751 5.88427 75.7294 6.14706C75.8838 6.40928 76.0893 6.61059 76.3474 6.7504C76.6054 6.88963 76.8854 6.95983 77.1862 6.95983ZM82.863 7.99246C82.469 7.99246 82.1176 7.91936 81.8095 7.77259C81.5116 7.6347 81.2618 7.41821 81.0897 7.14895C80.9155 6.87288 80.8259 6.55601 80.8311 6.23408C80.8311 5.69514 81.0446 5.26933 81.471 4.95548C81.898 4.6422 82.4366 4.48557 83.0894 4.48557C83.4114 4.48557 83.7018 4.51458 83.9599 4.57259C84.2179 4.6306 84.4222 4.69326 84.5729 4.76171V4.49543C84.5729 4.1752 84.4473 3.91472 84.1966 3.71342C83.9458 3.51211 83.6231 3.41175 83.2291 3.41175C82.9491 3.41175 82.6861 3.46976 82.4385 3.58579C82.1997 3.69478 81.9943 3.86016 81.8419 4.06614L81.0141 3.4628C81.2581 3.14257 81.5728 2.89369 81.9596 2.71675C82.347 2.53923 82.777 2.45047 83.2504 2.45047C84.0459 2.45047 84.6589 2.63611 85.089 3.0074C85.5191 3.37926 85.7338 3.90254 85.7338 4.57723V7.82886H84.5729V7.20522H84.5192C84.3613 7.43031 84.1392 7.6177 83.8525 7.76795C83.5658 7.91762 83.2364 7.99246 82.863 7.99246ZM83.0674 7.06193C83.3541 7.06193 83.6121 6.99754 83.8421 6.86759C84.0709 6.73822 84.2508 6.56476 84.379 6.34663C84.5074 6.13146 84.5743 5.88803 84.5729 5.64061C84.3917 5.54585 84.1983 5.4737 83.9977 5.42596C83.7746 5.37106 83.5449 5.34376 83.3145 5.34474C82.8704 5.34474 82.5446 5.4277 82.3366 5.59478C82.1286 5.76186 82.0249 5.97825 82.0249 6.24453C82.0249 6.48238 82.1213 6.67846 82.3152 6.8322C82.5086 6.98535 82.7593 7.06193 83.0674 7.06193ZM89.314 7.99246C88.8199 7.99246 88.3722 7.87353 87.9708 7.63452C87.5663 7.3929 87.2376 7.05226 87.0191 6.6483C86.7861 6.22886 86.6696 5.75316 86.6696 5.22118C86.6696 4.68978 86.7855 4.21465 87.0191 3.79521C87.2376 3.39125 87.5663 3.05061 87.9708 2.80899C88.3735 2.5698 88.8399 2.44538 89.3146 2.45047C89.7014 2.45047 90.0491 2.53227 90.3578 2.69587C90.6658 2.85946 90.8989 3.06077 91.0563 3.2992H91.1099L91.0563 2.56302V0.507614H92.2391V7.82886H91.1105V7.15417H91.0563C90.8989 7.38622 90.6658 7.58347 90.3572 7.74706C90.0377 7.9134 89.6782 7.99796 89.314 7.99246ZM89.4867 6.95983C89.7734 6.95983 90.04 6.88847 90.2876 6.74518C90.5347 6.60189 90.7336 6.3971 90.8842 6.1314C91.0349 5.8657 91.1099 5.56287 91.1099 5.22175C91.1099 4.88064 91.0349 4.57897 90.8842 4.31675C90.7461 4.06683 90.5401 3.85668 90.2876 3.70819C90.0457 3.56752 89.7675 3.49308 89.4839 3.49308C89.2003 3.49308 88.9222 3.56752 88.6802 3.70819C88.4253 3.85546 88.2172 4.06579 88.0781 4.31675C87.9274 4.57897 87.8524 4.88064 87.8524 5.22175C87.8524 5.56229 87.9274 5.8657 88.0781 6.1314C88.2288 6.39768 88.4295 6.60189 88.6802 6.74518C88.9309 6.88847 89.2 6.95983 89.4867 6.95983ZM98.7011 7.99246C98.149 7.99246 97.6543 7.87179 97.2169 7.62988C96.7859 7.39385 96.4324 7.0486 96.1957 6.63263C95.9517 6.2103 95.8297 5.73923 95.8297 5.22175C95.8297 4.7037 95.9517 4.23321 96.1957 3.8103C96.4325 3.39455 96.786 3.0495 97.2169 2.81363C97.6543 2.57172 98.149 2.45047 98.7011 2.45047C99.2525 2.45047 99.7472 2.57346 100.185 2.81886C100.615 3.05763 100.968 3.40418 101.206 3.82074C101.45 4.24366 101.572 4.71008 101.572 5.22175C101.572 5.73981 101.45 6.2103 101.206 6.63263C100.969 7.0486 100.616 7.39385 100.185 7.62988C99.7472 7.87179 99.2525 7.99246 98.7011 7.99246ZM98.7011 6.95983C99.0018 6.95983 99.2812 6.89021 99.5392 6.7504C99.7973 6.61059 100.003 6.40928 100.158 6.14706C100.312 5.88427 100.389 5.57621 100.389 5.22175C100.389 4.86729 100.312 4.56041 100.157 4.30109C100.013 4.05173 99.799 3.84499 99.5392 3.70355C99.2842 3.56447 98.995 3.49202 98.7011 3.49355C98.3997 3.49355 98.1203 3.56316 97.8623 3.70297C97.6042 3.84279 97.3987 4.04235 97.2437 4.30109C97.09 4.56041 97.0125 4.86729 97.0125 5.22175C97.0125 5.57563 97.09 5.88427 97.2443 6.14706C97.398 6.40928 97.6042 6.61059 97.8623 6.7504C98.1203 6.88963 98.3997 6.95983 98.7011 6.95983ZM102.55 2.61465H103.679V3.2992H103.733C103.891 3.05381 104.125 2.85134 104.437 2.69065C104.742 2.5322 105.084 2.44958 105.431 2.45047C106.098 2.45047 106.605 2.63611 106.953 3.0074C107.301 3.37926 107.474 3.88571 107.474 4.52618V7.82886H106.292V4.67991C106.292 4.27092 106.186 3.97099 105.974 3.78013C105.763 3.58869 105.471 3.49355 105.098 3.49355C104.833 3.49355 104.596 3.56316 104.389 3.70297C104.181 3.84279 104.019 4.02843 103.905 4.2599C103.79 4.49195 103.733 4.74141 103.733 5.00711V7.82886H102.55V2.61465ZM113.571 7.91124C113.327 7.91124 113.098 7.87353 112.883 7.79812C112.668 7.72328 112.492 7.62408 112.356 7.50225C112.048 7.2087 111.893 6.81015 111.893 6.30544V3.60609H110.936V2.61407H111.894V1.1417H113.076V2.61407H114.409V3.60609H113.076V6.06004C113.076 6.33967 113.134 6.53749 113.248 6.65294C113.356 6.78927 113.542 6.85772 113.807 6.85772C113.929 6.85772 114.036 6.84206 114.13 6.81131C114.223 6.78115 114.323 6.73126 114.431 6.66338V7.75751C114.194 7.85961 113.908 7.91124 113.571 7.91124ZM115.592 0.507614H116.775V2.50152L116.721 3.2992H116.775C116.933 3.05381 117.167 2.85134 117.479 2.69065C117.787 2.53129 118.133 2.44868 118.484 2.45047C119.151 2.45047 119.66 2.63611 120.011 3.0074C120.362 3.37926 120.538 3.88571 120.538 4.52618V7.82886H119.355V4.67991C119.355 4.28426 119.245 3.98782 119.028 3.78999C118.809 3.59275 118.524 3.49355 118.172 3.49355C117.908 3.49355 117.669 3.5649 117.457 3.70819C117.243 3.85431 117.071 4.04945 116.957 4.27556C116.835 4.5111 116.775 4.76171 116.775 5.02741V7.82944H115.592V0.507614ZM124.387 7.99246C123.85 7.99246 123.367 7.87353 122.942 7.63452C122.519 7.3999 122.172 7.05855 121.941 6.6483C121.701 6.22886 121.581 5.75664 121.581 5.23162C121.577 4.7497 121.697 4.27413 121.93 3.84627C122.153 3.43048 122.489 3.07912 122.904 2.82872C123.319 2.57694 123.793 2.45047 124.323 2.45047C124.875 2.45047 125.354 2.5665 125.758 2.79855C126.163 3.03002 126.472 3.34677 126.683 3.74938C126.894 4.15142 127 4.6045 127 5.10921C127 5.20435 126.989 5.32386 126.968 5.46715H122.763C122.806 5.95098 122.988 6.324 123.306 6.5868C123.613 6.84487 124.01 6.98508 124.42 6.98013C124.756 6.98013 125.048 6.90703 125.296 6.76026C125.543 6.61407 125.742 6.4145 125.892 6.16273L126.893 6.61233C126.651 7.02547 126.303 7.37372 125.882 7.62466C125.466 7.87005 124.968 7.99246 124.387 7.99246ZM125.796 4.60798C125.778 4.41493 125.716 4.22801 125.613 4.06091C125.495 3.87071 125.326 3.71373 125.124 3.60609C124.905 3.4831 124.638 3.42219 124.323 3.42219C123.943 3.42219 123.622 3.52951 123.361 3.74416C123.098 3.95881 122.918 4.24656 122.818 4.60856L125.796 4.60798ZM46.5374 15.3955H49.4411L54.4811 28.152H51.6897L50.5654 25.1052H45.432L44.3084 28.152H41.5169L46.5374 15.3955ZM49.7412 22.8966L48.5609 19.6891L48.0741 18.1575H47.924L47.4366 19.6891L46.2379 22.896L49.7412 22.8966ZM55.2132 19.066H57.5172V20.1706H57.6673C57.9296 19.7784 58.3108 19.4489 58.8098 19.1814C59.3101 18.9146 59.8841 18.7811 60.5338 18.7811C61.3957 18.7811 62.179 18.9854 62.8848 19.3955C63.5906 19.8051 64.1433 20.3783 64.5428 21.1144C64.9424 21.8512 65.1425 22.6825 65.1425 23.609C65.1425 24.5471 64.9424 25.3819 64.5428 26.1123C64.1433 26.8426 63.5906 27.4129 62.8848 27.8225C62.179 28.2321 61.3957 28.4374 60.5338 28.4374C59.8841 28.4374 59.3064 28.3063 58.8013 28.0452C58.295 27.7842 57.9168 27.457 57.6673 27.0648H57.5172L57.6673 28.3481V32H55.2132V19.066ZM60.1031 26.2811C60.5649 26.2811 60.9956 26.1685 61.3957 25.9429C61.7974 25.7151 62.1273 25.3889 62.351 24.9984C62.5883 24.5946 62.7067 24.1317 62.7067 23.609C62.7067 23.0863 62.5883 22.6228 62.351 22.219C62.1287 21.8299 61.7983 21.5064 61.3957 21.2838C61.0034 21.066 60.5568 20.9522 60.1025 20.9543C59.6529 20.9543 59.2283 21.0645 58.8288 21.2838C58.4262 21.5064 58.0957 21.8299 57.8735 22.219C57.6362 22.6228 57.5172 23.0863 57.5172 23.609C57.5172 24.1311 57.6362 24.5952 57.8735 24.9984C58.0972 25.3889 58.4271 25.7151 58.8288 25.9429C59.213 26.1644 59.6538 26.2813 60.1031 26.2811ZM66.0057 19.066H68.3103V20.1706H68.4598C68.7221 19.7784 69.1034 19.4489 69.603 19.1814C70.102 18.9146 70.6766 18.7811 71.3263 18.7811C72.1883 18.7811 72.9715 18.9854 73.6773 19.3955C74.3831 19.8051 74.9358 20.3783 75.3354 21.1144C75.7349 21.8512 75.935 22.6825 75.935 23.609C75.935 24.5471 75.7349 25.3819 75.3354 26.1123C74.9358 26.8426 74.3831 27.4129 73.6773 27.8225C72.9715 28.2321 72.1883 28.4374 71.3263 28.4374C70.6766 28.4374 70.0989 28.3063 69.5938 28.0452C69.0875 27.7842 68.7093 27.457 68.4598 27.0648H68.3103L68.4598 28.3481V32H66.0057V19.066ZM70.8956 26.2811C71.3574 26.2811 71.7881 26.1685 72.1883 25.9429C72.5899 25.7151 72.9199 25.3889 73.1436 24.9984C73.3809 24.5946 73.4992 24.1317 73.4992 23.609C73.4992 23.0863 73.3809 22.6228 73.1436 22.219C72.9213 21.8299 72.5908 21.5064 72.1883 21.2838C71.7959 21.066 71.3493 20.9522 70.895 20.9543C70.446 20.9543 70.0208 21.0645 69.6213 21.2838C69.2187 21.5064 68.8883 21.8299 68.666 22.219C68.4287 22.6228 68.3103 23.0863 68.3103 23.609C68.3103 24.1311 68.4287 24.5952 68.666 24.9984C68.8897 25.3889 69.2196 25.7151 69.6213 25.9429C70.0055 26.1644 70.4463 26.2813 70.8956 26.2811ZM84.4997 28.4368C83.3254 28.4368 82.289 28.1224 81.3898 27.493C80.4907 26.8635 79.8599 25.973 79.4975 24.8203L81.8766 23.9298C82.0645 24.6068 82.3829 25.1469 82.8325 25.5507C83.2821 25.9545 83.844 26.1563 84.5186 26.1563C85.0805 26.1563 85.5618 26.0229 85.9607 25.7561C86.3609 25.4886 86.5604 25.1173 86.5604 24.6422C86.5604 24.1671 86.3701 23.7778 85.9888 23.475C85.6081 23.1722 84.9304 22.8484 83.9562 22.5044L83.1327 22.219C82.2701 21.9342 81.5338 21.4979 80.9213 20.9096C80.3095 20.322 80.0033 19.5823 80.0033 18.6918C80.0033 18.0264 80.1844 17.4207 80.5468 16.8743C80.9091 16.3278 81.4209 15.8973 82.0828 15.5829C82.7447 15.2679 83.4944 15.1107 84.3314 15.1107C85.5429 15.1107 86.4982 15.381 87.1972 15.9211C87.8969 16.4618 88.3776 17.0941 88.64 17.8181L86.4103 18.7092C86.2752 18.3205 86.0248 17.9772 85.6893 17.7207C85.3458 17.4538 84.9054 17.3198 84.3686 17.3198C83.8196 17.3198 83.3663 17.4416 83.0107 17.6853C82.6544 17.9289 82.4763 18.2463 82.4763 18.6384C82.4763 19.0184 82.6453 19.3421 82.9826 19.609C83.3193 19.8764 83.8751 20.1346 84.6498 20.384L85.4929 20.6509C86.6543 21.0315 87.5437 21.5333 88.1623 22.1569C88.7803 22.7806 89.0895 23.5968 89.0895 24.6068C89.0895 25.4381 88.8651 26.1418 88.4155 26.7179C87.9714 27.2897 87.3724 27.736 86.6824 28.0093C85.9929 28.2912 85.2503 28.4367 84.4997 28.4368ZM94.0746 28.2947C93.6283 28.2992 93.1845 28.2299 92.7631 28.0899C92.3635 27.953 92.039 27.7662 91.7889 27.5284C91.202 26.9941 90.9086 26.2341 90.9086 25.2484V21.0611H89.2414V19.0654H90.9086V16.5001H93.3628V19.066H95.7046V21.0616H93.3621V24.8209C93.3621 25.2838 93.4689 25.6157 93.6812 25.8181C93.8563 26.0078 94.1558 26.103 94.5804 26.103C94.8183 26.103 95.0147 26.074 95.1702 26.0142C95.3811 25.9281 95.5849 25.8268 95.7797 25.7114V27.9913C95.2367 28.1945 94.6581 28.2974 94.0746 28.2947ZM101.214 28.4368C100.227 28.4368 99.3471 28.2263 98.5723 27.8045C97.8139 27.3978 97.1884 26.7998 96.7648 26.0763C96.3336 25.3459 96.1182 24.5233 96.1182 23.609C96.1182 22.7063 96.3336 21.8866 96.7648 21.1504C97.1861 20.423 97.812 19.8214 98.5723 19.4129C99.3471 18.9917 100.227 18.7806 101.214 18.7806C102.188 18.7806 103.062 18.9917 103.837 19.4129C104.597 19.8214 105.223 20.423 105.644 21.1504C106.076 21.8872 106.291 22.7063 106.291 23.609C106.291 24.5233 106.076 25.3459 105.644 26.0763C105.221 26.8 104.595 27.3983 103.837 27.8051C103.062 28.2263 102.188 28.4368 101.214 28.4368ZM101.214 26.2811C101.673 26.2851 102.125 26.1747 102.525 25.9608C102.929 25.7433 103.26 25.4223 103.481 25.0344C103.718 24.6306 103.837 24.1555 103.837 23.609C103.837 23.0741 103.718 22.6054 103.481 22.2016C103.26 21.8137 102.929 21.4927 102.525 21.2751C102.125 21.0611 101.673 20.9505 101.214 20.9543C100.755 20.9505 100.302 21.0611 99.9022 21.2751C99.5026 21.4886 99.1811 21.7972 98.9384 22.2016C98.6944 22.6054 98.5723 23.0741 98.5723 23.609C98.5723 24.1433 98.6944 24.6155 98.9384 25.0251C99.1811 25.4352 99.5026 25.7468 99.9022 25.9608C100.302 26.1747 100.755 26.2851 101.214 26.2811ZM107.21 19.066H109.515V20.2773H109.665C109.902 19.8497 110.271 19.4964 110.77 19.2174C111.27 18.9383 111.839 18.7935 112.419 18.7986C112.856 18.7986 113.256 18.8641 113.618 18.9946V21.3285C113.339 21.2273 113.054 21.1411 112.765 21.0703C112.523 21.0155 112.274 20.9884 112.025 20.9897C111.301 20.9897 110.726 21.2392 110.302 21.7381C109.877 22.237 109.665 22.8664 109.665 23.627V28.152H107.211L107.21 19.066ZM118.359 28.4368C117.41 28.4368 116.555 28.2292 115.793 27.8132C115.041 27.4077 114.422 26.8129 114.003 26.0943C113.573 25.3633 113.357 24.5413 113.357 23.627C113.351 22.7838 113.57 21.9529 113.994 21.2125C114.406 20.4837 115.013 19.8721 115.755 19.4402C116.505 19.0004 117.341 18.7806 118.266 18.7806C119.252 18.7806 120.102 18.9825 120.813 19.3862C121.512 19.7763 122.075 20.3523 122.434 21.0431C122.802 21.7439 122.987 22.5224 122.987 23.3775C122.987 23.6502 122.968 23.9112 122.93 24.1607H115.755C115.88 24.8859 116.183 25.4352 116.664 25.8094C117.144 26.183 117.722 26.3704 118.396 26.3704C118.959 26.3704 119.442 26.2544 119.848 26.0229C120.249 25.7959 120.582 25.4736 120.813 25.0877L122.799 26.0142C121.825 27.6293 120.345 28.4368 118.359 28.4368ZM120.626 22.5044C120.601 22.219 120.492 21.9371 120.298 21.658C120.104 21.379 119.836 21.1475 119.493 20.963C119.149 20.7791 118.746 20.6869 118.284 20.6869C117.697 20.6869 117.195 20.8505 116.776 21.1771C116.358 21.5037 116.055 21.9458 115.867 22.5044H120.626Z" fill="#1C2127"/>
</svg>
