<svg width="111" height="32" viewBox="0 0 111 32" fill="none" xmlns="http://www.w3.org/2000/svg">
<path d="M1.43035 27.2973C1.96123 27.3941 2.58849 27.275 3.25914 26.9044L15.0192 20.4054L11.5983 16.9102L1.43035 27.2973ZM0.459311 5.00366C0.167945 5.44114 0 6.04342 0 6.78469V24.8401C0 25.562 0.158928 26.152 0.435641 26.586L10.7276 15.7819L0.459311 5.00366ZM15.7344 11.1883L3.9388 4.68639C3.28337 4.32514 2.66908 4.2014 2.14552 4.28409L12.318 14.6782L15.7344 11.1883ZM16.609 19.8882L20.0254 18.0409C21.9337 17.0105 21.9325 15.3257 20.0231 14.297L16.5882 12.4456L12.8737 16.1561L16.609 19.8882ZM41.0083 7.73179C40.3539 7.73753 39.7097 7.56292 39.1412 7.22569C38.5788 6.89537 38.1109 6.41552 37.7852 5.83524C37.451 5.24586 37.2837 4.58963 37.2837 3.86596C37.2837 3.14287 37.451 2.48606 37.7852 1.89727C38.111 1.31719 38.5789 0.837553 39.1412 0.507394C39.7096 0.169756 40.3538 -0.00526429 41.0083 0.000120609C41.5448 0.000120609 42.0453 0.0998155 42.5085 0.300379C42.9718 0.49977 43.3595 0.778917 43.6706 1.13723L42.8957 1.94359C42.6662 1.67634 42.3832 1.46458 42.0667 1.32314C41.7289 1.17501 41.3653 1.10113 40.9987 1.10615C40.5417 1.10615 40.1145 1.21992 39.7172 1.44746C39.32 1.6747 38.9902 2.01077 38.7636 2.4192C38.5252 2.83968 38.4063 3.32174 38.4063 3.86596C38.4063 4.41076 38.5252 4.89282 38.7636 5.3133C38.9902 5.72174 39.32 6.0578 39.7172 6.28504C40.1124 6.51174 40.557 6.62906 41.0083 6.62576C41.4321 6.62576 41.7866 6.56067 42.0712 6.4293C42.3531 6.30043 42.6118 6.12232 42.836 5.90268C42.9819 5.75079 43.1065 5.56137 43.2085 5.33383C43.3135 5.09839 43.3823 4.84727 43.4125 4.58963H40.9987V3.55631H44.4653C44.4985 3.74925 44.5149 3.94923 44.5149 4.15566C44.5149 4.62423 44.4455 5.07403 44.3063 5.50448C44.172 5.92724 43.9442 6.31129 43.6413 6.62576C42.9718 7.36351 42.0943 7.73179 41.0083 7.73179ZM47.8822 7.73179C47.3857 7.73179 46.9405 7.61157 46.5465 7.36996C46.1559 7.13278 45.836 6.78772 45.6223 6.373C45.4008 5.94901 45.2898 5.47164 45.2898 4.94091C45.2862 4.4537 45.397 3.97295 45.6127 3.54048C45.8187 3.12024 46.1291 2.76507 46.5116 2.51186C46.8954 2.25734 47.3327 2.1295 47.8225 2.1295C48.3325 2.1295 48.7749 2.24679 49.1485 2.48136C49.5228 2.71535 49.8079 3.03555 50.0029 3.44254C50.1985 3.84895 50.296 4.30696 50.296 4.81717C50.296 4.91335 50.2864 5.03415 50.2661 5.179H46.3825C46.422 5.6681 46.5894 6.04518 46.8841 6.31084C47.1674 6.57158 47.5339 6.7133 47.9121 6.70845C48.2232 6.70845 48.4931 6.63456 48.7219 6.48619C48.9502 6.3384 49.1339 6.13667 49.2731 5.88215L50.1968 6.33664C49.9735 6.75428 49.6522 7.10632 49.263 7.35999C48.8792 7.60805 48.4187 7.73179 47.8822 7.73179ZM49.1841 4.31048C49.168 4.11533 49.1102 3.92638 49.015 3.75746C48.9062 3.56519 48.7502 3.4065 48.563 3.29769C48.3607 3.17337 48.1138 3.11179 47.8225 3.11179C47.4719 3.11179 47.1755 3.22028 46.9337 3.43727C46.6919 3.65425 46.5246 3.94513 46.4321 4.31107H49.1835L49.1841 4.31048ZM53.2164 7.6491C52.991 7.6491 52.7796 7.61157 52.5807 7.53533C52.3823 7.45968 52.22 7.3594 52.0938 7.23625C51.8092 6.93951 51.6666 6.53662 51.6666 6.02641V3.29769H50.7829V2.29487H51.6666V0.806481H52.7599V2.29487H53.9913V3.29769H52.7594V5.77835C52.7594 6.06102 52.8123 6.26099 52.9183 6.3777C53.018 6.51551 53.1899 6.58471 53.4351 6.58471C53.5478 6.58471 53.647 6.56888 53.7332 6.53779C53.8189 6.5073 53.9119 6.45686 54.011 6.38825V7.49428C53.7924 7.5975 53.5275 7.6491 53.2164 7.6491ZM57.9842 1.53015C57.7791 1.53015 57.6055 1.45626 57.4629 1.30789C57.3936 1.23744 57.3389 1.15296 57.3022 1.05966C57.2654 0.966369 57.2475 0.866233 57.2493 0.76543C57.2493 0.551378 57.3203 0.370753 57.4629 0.222383C57.6055 0.0745988 57.7791 0.000120609 57.9842 0.000120609C58.1899 0.000120609 58.3635 0.0745985 58.5061 0.222969C58.6481 0.370752 58.7197 0.551378 58.7197 0.76543C58.7197 0.978895 58.6481 1.15952 58.5055 1.30789C58.4378 1.38001 58.3566 1.43694 58.267 1.47517C58.1773 1.51339 58.0811 1.5321 57.9842 1.53015ZM57.4376 2.29487H58.5309V7.567H57.4376V2.29487ZM61.918 7.6491C61.6925 7.6491 61.4806 7.61157 61.2822 7.53533C61.0833 7.45968 60.9216 7.3594 60.7953 7.23625C60.5107 6.93951 60.3681 6.53662 60.3681 6.02641V3.29769H59.4845V2.29487H60.3681V0.806481H61.4615V2.29487H62.6929V3.29769H61.4609V5.77835C61.4609 6.06102 61.5139 6.26099 61.6198 6.3777C61.719 6.51551 61.8915 6.58471 62.1366 6.58471C62.2493 6.58471 62.3485 6.56888 62.4342 6.53779C62.5204 6.5073 62.6134 6.45686 62.7126 6.38825V7.49428C62.4939 7.5975 62.229 7.6491 61.918 7.6491ZM68.434 7.73179C67.9239 7.73179 67.4675 7.60981 67.0634 7.36527C66.665 7.12676 66.3382 6.77774 66.1194 6.35717C65.8945 5.93024 65.7818 5.45405 65.7818 4.93094C65.7818 4.40724 65.8945 3.93164 66.1199 3.50412C66.3387 3.08385 66.6653 2.73505 67.0634 2.49661C67.4675 2.25206 67.9239 2.1295 68.434 2.1295C68.944 2.1295 69.4011 2.25382 69.8051 2.50189C70.2028 2.74326 70.5291 3.09359 70.7486 3.51468C70.974 3.94219 71.0867 4.41369 71.0867 4.93094C71.0867 5.45463 70.974 5.93024 70.7486 6.35717C70.5299 6.77766 70.2033 7.12667 69.8051 7.36527C69.4011 7.60981 68.944 7.73179 68.434 7.73179ZM68.434 6.68792C68.7124 6.68792 68.9705 6.61755 69.2089 6.47622C69.4473 6.33488 69.6372 6.13139 69.7798 5.86632C69.9224 5.60066 69.9939 5.28926 69.9939 4.93094C69.9939 4.57262 69.9224 4.26239 69.7798 4.00025C69.6464 3.74818 69.4489 3.53919 69.2089 3.39622C68.9731 3.25552 68.7058 3.18228 68.434 3.18392C68.1561 3.18392 67.8975 3.2543 67.6591 3.39563C67.4207 3.53696 67.2308 3.7387 67.0882 4.00025C66.9456 4.26239 66.8746 4.57262 66.8746 4.93094C66.8746 5.28867 66.9456 5.60066 67.0882 5.86632C67.2308 6.13139 67.4207 6.33488 67.6591 6.47622C67.8975 6.61696 68.1561 6.68792 68.434 6.68792ZM71.9901 2.29546H73.0327V2.98746H73.0829C73.2283 2.7394 73.4453 2.53473 73.7332 2.37228C74.0149 2.21211 74.3309 2.1286 74.6519 2.1295C75.2679 2.1295 75.7367 2.31716 76.058 2.69248C76.3792 3.06839 76.5398 3.58036 76.5398 4.22779V7.56642H75.4465V4.3832C75.4465 3.96976 75.349 3.66657 75.1535 3.47363C74.9585 3.2801 74.6885 3.18392 74.3442 3.18392C74.0996 3.18392 73.8809 3.2543 73.6887 3.39563C73.4971 3.53696 73.3478 3.72462 73.2418 3.95861C73.1359 4.19319 73.0829 4.44536 73.0829 4.71395V7.56642H71.9901V2.29487V2.29546ZM37.1168 15.2148H41.4789C42.2634 15.2148 42.9786 15.3861 43.625 15.7285C44.2708 16.0704 44.7786 16.5507 45.1477 17.1688C45.5169 17.7875 45.7017 18.493 45.7017 19.2853C45.7017 20.0776 45.5169 20.786 45.1477 21.4106C44.7808 22.0328 44.2531 22.5351 43.625 22.8603C42.9786 23.2022 42.2634 23.3734 41.4789 23.3734H39.4529V28.1101H37.1163V15.2154L37.1168 15.2148ZM41.5476 21.0681C42.1247 21.0681 42.5779 20.8939 42.9064 20.5462C43.2355 20.1978 43.3995 19.7779 43.3995 19.2853C43.3995 18.7927 43.2355 18.3757 42.9064 18.0333C42.5779 17.6914 42.1247 17.5201 41.5482 17.5201H39.4529V21.0681H41.5471H41.5476ZM46.7415 15.2154H49.0088V28.1101H46.7415V15.2154ZM53.1471 28.3987C52.2127 28.3987 51.4451 28.1131 50.8455 27.5424C50.2453 26.9724 49.9454 26.2253 49.9454 25.3005C49.9454 24.6882 50.101 24.1481 50.4126 23.6795C50.7243 23.2116 51.1509 22.8515 51.6931 22.5993C52.2358 22.3471 52.8354 22.2211 53.4931 22.2211C54.405 22.2211 55.1838 22.3589 55.8297 22.6351V22.2386C55.8297 21.7343 55.6482 21.3261 55.2847 21.0142C54.9212 20.7022 54.4337 20.5462 53.8222 20.5462C53.4069 20.5462 53.0056 20.6447 52.619 20.8429C52.248 21.0284 51.9203 21.2958 51.6587 21.6264L50.2047 20.4377C50.6289 19.8638 51.1814 19.4064 51.8142 19.1053C52.4607 18.7927 53.1646 18.6367 53.9259 18.6367C55.2757 18.6367 56.3031 18.961 57.0064 19.6096C57.7109 20.2576 58.0626 21.2065 58.0626 22.455V28.1101H55.8297V27.1736H55.6911C55.4262 27.5336 55.0768 27.828 54.6439 28.0562C54.2117 28.2843 53.7123 28.3981 53.1471 28.3981V28.3987ZM53.6836 26.5613C54.3413 26.5613 54.8632 26.342 55.2503 25.9039C55.6364 25.4658 55.8297 24.9521 55.8297 24.3639C55.251 24.0781 54.6183 23.9304 53.9778 23.9317C52.8011 23.9317 52.2127 24.388 52.2127 25.3005C52.2127 25.6729 52.3395 25.9761 52.5931 26.21C52.8467 26.4446 53.2108 26.5613 53.6836 26.5613ZM62.0273 27.6779L58.3066 18.9252H60.8849L63.1696 24.6343H63.3083L65.5062 18.9252H68.0333L62.5813 32H60.141L62.0273 27.6779ZM75.4442 28.3981C74.3594 28.3981 73.4019 28.0802 72.5712 27.4439C71.7399 26.8076 71.1577 25.9074 70.823 24.7422L73.0209 23.842C73.1939 24.5264 73.4887 25.0723 73.9034 25.4805C74.3188 25.8887 74.8384 26.0928 75.4612 26.0928C75.9808 26.0928 76.4249 25.9579 76.794 25.6881C77.1631 25.4178 77.348 25.0424 77.348 24.5621C77.348 24.0818 77.1716 23.6883 76.8199 23.3822C76.4683 23.0761 75.8421 22.7489 74.9421 22.4011L74.1807 22.1126C73.3844 21.8246 72.7042 21.3836 72.1383 20.789C71.5731 20.1949 71.2902 19.4472 71.2902 18.547C71.2902 17.8743 71.4575 17.2621 71.7917 16.7097C72.1265 16.1572 72.5999 15.7221 73.2114 15.4042C73.8229 15.0858 74.5149 14.9269 75.2881 14.9269C76.4074 14.9269 77.2899 15.2002 77.9364 15.7461C78.5822 16.2927 79.0269 16.9319 79.2692 17.6638L77.2094 18.5646C77.0845 18.1716 76.8532 17.8246 76.5432 17.5653C76.2259 17.2955 75.819 17.16 75.3231 17.16C74.8153 17.16 74.3971 17.2832 74.068 17.5295C73.7394 17.7758 73.5749 18.0966 73.5749 18.493C73.5749 18.8772 73.7304 19.2044 74.0421 19.4742C74.3537 19.7445 74.8671 20.0055 75.5823 20.2576L76.3612 20.5274C77.4342 20.9121 78.2565 21.4194 78.8274 22.0498C79.3988 22.6802 79.684 23.5054 79.684 24.5264C79.684 25.3667 79.4766 26.0781 79.0612 26.6604C78.6512 27.2383 78.098 27.6895 77.4607 27.9659C76.8237 28.2508 76.1376 28.3979 75.4442 28.3981ZM84.2895 28.2544C83.8771 28.259 83.4671 28.1889 83.0778 28.0474C82.7093 27.909 82.4089 27.7201 82.1784 27.4797C81.6357 26.9396 81.3646 26.1713 81.3646 25.175V20.942H79.8243V18.9247H81.3646V16.3314H83.6318V18.9252H85.7959V20.9426H83.6318V24.7428C83.6318 25.2107 83.7299 25.5462 83.9266 25.7509C84.0878 25.9426 84.365 26.0388 84.7573 26.0388C84.9765 26.0388 85.158 26.0095 85.3022 25.9491C85.4969 25.8619 85.6849 25.7596 85.8647 25.643V27.9477C85.3631 28.1531 84.8285 28.2571 84.2895 28.2544ZM90.8856 28.3981C89.9743 28.3981 89.161 28.1852 88.4453 27.7588C87.7444 27.3479 87.1663 26.7432 86.7749 26.0118C86.377 25.2735 86.1775 24.4419 86.1775 23.5177C86.1775 22.6052 86.377 21.7765 86.7749 21.0323C87.1642 20.2969 87.7426 19.6887 88.4453 19.2759C89.161 18.8502 89.9743 18.6367 90.8856 18.6367C91.7856 18.6367 92.5932 18.8502 93.3089 19.2759C94.0114 19.6888 94.5896 20.297 94.9788 21.0323C95.3767 21.7771 95.5762 22.6052 95.5762 23.5177C95.5762 24.4419 95.3767 25.2735 94.9788 26.0118C94.5874 26.7435 94.0093 27.3483 93.3083 27.7594C92.5932 28.1852 91.7856 28.3987 90.885 28.3987L90.8856 28.3981ZM90.8856 26.2188C91.3097 26.2229 91.7274 26.1113 92.0972 25.8951C92.47 25.6752 92.7758 25.3507 92.9798 24.9586C93.199 24.5504 93.3083 24.0701 93.3083 23.5177C93.3083 22.977 93.199 22.5031 92.9798 22.095C92.7758 21.7028 92.47 21.3783 92.0972 21.1584C91.7275 20.9421 91.3097 20.8303 90.8856 20.8341C90.4614 20.8303 90.0436 20.9421 89.6739 21.1584C89.3047 21.3742 89.0077 21.6862 88.7829 22.095C88.5574 22.5031 88.4447 22.977 88.4447 23.5177C88.4447 24.0578 88.5574 24.5352 88.7829 24.9492C89.0077 25.3638 89.3047 25.6787 89.6739 25.8951C90.0437 26.1113 90.4614 26.2229 90.8856 26.2188ZM96.4255 18.9252H98.5541V20.1497H98.6927C98.9125 19.7175 99.2523 19.3604 99.7139 19.0783C100.175 18.7961 100.702 18.6497 101.237 18.6549C101.641 18.6549 102.01 18.7212 102.345 18.8531V21.2124C102.087 21.1101 101.824 21.023 101.557 20.9514C101.333 20.896 101.104 20.8686 100.874 20.8699C100.204 20.8699 99.6733 21.1221 99.2811 21.6264C98.8888 22.1307 98.6927 22.767 98.6927 23.5359V28.1101H96.4255V18.9258V18.9252ZM106.725 28.3981C105.848 28.3981 105.058 28.1881 104.354 27.7676C103.66 27.3577 103.088 26.7564 102.701 26.03C102.303 25.2911 102.103 24.4601 102.103 23.5359C102.098 22.6835 102.3 21.8435 102.692 21.0951C103.072 20.3583 103.634 19.74 104.319 19.3035C105.011 18.859 105.785 18.6367 106.639 18.6367C107.55 18.6367 108.335 18.8408 108.993 19.249C109.638 19.6434 110.158 20.2256 110.489 20.9238C110.83 21.6323 111 22.4193 111 23.2837C111 23.5593 110.983 23.8232 110.948 24.0754H104.319C104.435 24.8084 104.714 25.3638 105.159 25.7421C105.603 26.1197 106.136 26.3092 106.76 26.3092C107.279 26.3092 107.726 26.1919 108.101 25.9579C108.472 25.7284 108.779 25.4026 108.993 25.0125L110.827 25.9491C109.927 27.5817 108.56 28.3981 106.725 28.3981ZM108.82 22.4011C108.796 22.1126 108.696 21.8276 108.516 21.5455C108.338 21.2634 108.09 21.0294 107.772 20.8429C107.455 20.657 107.083 20.5638 106.656 20.5638C106.114 20.5638 105.649 20.7291 105.263 21.0593C104.876 21.3895 104.596 21.8363 104.423 22.4011H108.819H108.82Z" fill="#1C2127"/>
</svg>
